<?xml version="1.0" encoding="UTF-8"?>
<svg xmlns="http://www.w3.org/2000/svg" xmlns:xlink="http://www.w3.org/1999/xlink" width="30pt" height="30pt" viewBox="0 0 30 30" version="1.1">
<g id="surface1">
<path style=" stroke:none;fill-rule:nonzero;fill:rgb(94.117647%,47.45098%,0%);fill-opacity:1;" d="M 23.75 0 L 6.25 0 C 2.796875 0 0 2.796875 0 6.25 L 0 23.75 C 0 27.203125 2.796875 30 6.25 30 L 23.75 30 C 27.203125 30 30 27.203125 30 23.75 L 30 6.25 C 30 2.796875 27.203125 0 23.75 0 Z M 10 23.75 L 6.25 23.75 L 6.25 10 L 10 10 Z M 8.125 8.414062 C 6.917969 8.414062 5.9375 7.425781 5.9375 6.210938 C 5.9375 4.992188 6.917969 4.003906 8.125 4.003906 C 9.332031 4.003906 10.3125 4.992188 10.3125 6.210938 C 10.3125 7.425781 9.332031 8.414062 8.125 8.414062 Z M 25 23.75 L 21.25 23.75 L 21.25 16.746094 C 21.25 12.535156 16.25 12.855469 16.25 16.746094 L 16.25 23.75 L 12.5 23.75 L 12.5 10 L 16.25 10 L 16.25 12.207031 C 17.996094 8.972656 25 8.734375 25 15.300781 Z M 25 23.75 "/>
</g>
</svg>
