<?xml version="1.0" encoding="UTF-8"?>
<svg xmlns="http://www.w3.org/2000/svg" xmlns:xlink="http://www.w3.org/1999/xlink" width="30pt" height="30pt" viewBox="0 0 30 30" version="1.1">
<g id="surface1">
<path style=" stroke:none;fill-rule:nonzero;fill:rgb(94.117647%,47.45098%,0%);fill-opacity:1;" d="M 17.179688 10 C 17.179688 10 19.082031 0 13.011719 0 L 2.5 0 L 2.5 30 L 27.5 30 L 27.5 13.75 C 27.5 9.476562 20.941406 9.070312 17.179688 10 Z M 22.5 23.75 L 7.5 23.75 L 7.5 22.5 L 22.5 22.5 Z M 22.5 20 L 7.5 20 L 7.5 18.75 L 22.5 18.75 Z M 22.5 16.25 L 7.5 16.25 L 7.5 15 L 22.5 15 Z M 18.210938 0.09375 C 20.960938 1.5625 25.632812 6.199219 27.5 8.695312 C 25.890625 7.570312 22.445312 6.625 19.886719 7.222656 C 20.164062 5.386719 19.65625 1.554688 18.210938 0.09375 Z M 18.210938 0.09375 "/>
</g>
</svg>
