<?xml version="1.0" encoding="UTF-8"?>
<svg xmlns="http://www.w3.org/2000/svg" xmlns:xlink="http://www.w3.org/1999/xlink" width="30pt" height="30pt" viewBox="0 0 30 30" version="1.1">
<g id="surface1">
<path style=" stroke:none;fill-rule:nonzero;fill:rgb(94.117647%,47.45098%,0%);fill-opacity:1;" d="M 23.871094 13.296875 C 19.039062 10.425781 11.0625 10.164062 6.445312 11.5625 C 5.703125 11.789062 4.921875 11.371094 4.699219 10.628906 C 4.472656 9.886719 4.890625 9.105469 5.632812 8.878906 C 10.929688 7.269531 19.738281 7.582031 25.304688 10.886719 C 25.972656 11.28125 26.191406 12.140625 25.796875 12.808594 C 25.398438 13.472656 24.539062 13.695312 23.871094 13.296875 Z M 23.714844 17.550781 C 23.375 18.101562 22.65625 18.273438 22.105469 17.9375 C 18.074219 15.457031 11.929688 14.738281 7.160156 16.1875 C 6.542969 16.375 5.886719 16.027344 5.699219 15.410156 C 5.515625 14.789062 5.863281 14.140625 6.480469 13.949219 C 11.925781 12.296875 18.699219 13.097656 23.328125 15.945312 C 23.878906 16.28125 24.050781 17.003906 23.714844 17.550781 Z M 21.878906 21.636719 C 21.609375 22.078125 21.035156 22.214844 20.59375 21.945312 C 17.070312 19.792969 12.636719 19.308594 7.417969 20.5 C 6.914062 20.613281 6.414062 20.300781 6.296875 19.796875 C 6.183594 19.292969 6.496094 18.792969 7 18.675781 C 12.714844 17.371094 17.613281 17.933594 21.570312 20.351562 C 22.011719 20.617188 22.148438 21.195312 21.878906 21.636719 Z M 15 0 C 6.714844 0 0 6.714844 0 15 C 0 23.285156 6.714844 30 15 30 C 23.285156 30 30 23.285156 30 15 C 30 6.714844 23.285156 0 15 0 Z M 15 0 "/>
</g>
</svg>
